<svg id="aangepast" xmlns="http://www.w3.org/2000/svg" viewBox="0 0 629.29 402.52"><defs><style>.cls-1{fill:#ffcb05;}.cls-2{fill:#231f20;}</style></defs><title> </title><path class="cls-1" d="M460.21,214.71l32.59-19.58,9.28-66,26.17,85.6,45.12-27.12L626.45,2.48a368.58,368.58,0,0,0-56.86,17.71L544.86,136.54l-17-96.43a372.6,372.6,0,0,0-51.41,34.48l-11.09,78.85-19.72-51.36A374.56,374.56,0,0,0,410.17,143l-.06.16Z"/><path class="cls-2" d="M20.25,231.64l3.4,47.61,21.4-47.61h15.2l8,47.51,17.5-47.51h17l-29.3,73.11H57.75l-8.7-48-22.3,48H11.84L3.75,231.64Z"/><path class="cls-2" d="M122.84,255.35l-6.9,49.4h-13.8l6.9-49.4Zm-13.5-16a9.36,9.36,0,0,1,9.7-9.5c4.7,0,8.3,3.3,8.3,8a9.37,9.37,0,0,1-9.7,9.51C112.94,247.35,109.34,244.14,109.34,239.34Z"/><path class="cls-2" d="M179.84,272.75l-4.5,32H161l4-28.7c.9-6.3-1.8-9.4-6.4-9.4-5.7,0-9,3.9-9.8,9.6l-4,28.5h-14.2l6.9-49.4h12.7l-.1,5.2c3.2-4.4,8.9-6.91,15-6.91C176.34,253.64,181.44,261.35,179.84,272.75Z"/><path class="cls-2" d="M245.34,230.84l-10.4,73.91h-12.7l.1-4.3c-3.1,3.5-7.8,5.5-13.6,5.5-11.1,0-19.6-7.6-19.6-22.7,0-16.7,10.3-29.5,24.9-29.5,5.7,0,10.3,2.1,13.2,5.4l3.9-28.31Zm-20.8,46.61c0-7.6-3.6-11.8-8.8-11.8-7.3,0-12.1,8-12.1,16.6,0,7.6,3.7,11.8,8.9,11.8C219.74,294.05,224.54,286.35,224.54,277.45Z"/><path class="cls-2" d="M262.94,284.45c-.2,5.6,3.6,9.8,10.2,9.8,5.3,0,9.4-2.8,10.8-6.9l11.7,4c-3.5,9.1-12.4,14.6-23.3,14.6-13.5,0-23.1-8.5-23.1-24.1,0-15.9,10-28.21,25.9-28.21s23.5,12.21,21.5,26.31a23.74,23.74,0,0,1-1.1,4.5Zm1.4-10.3h18.8c.1-5.3-3-8.8-8.7-8.8C269,265.35,265.14,268.65,264.34,274.15Z"/><path class="cls-2" d="M333.44,270.35c.1-3.4-2.2-5.6-5.9-5.6-3.5,0-5.8,2-5.8,4.6s2.1,3.3,4.7,4l6.1,1.5c7.4,1.9,11.6,7.1,11.6,14,0,10.7-9.6,17.1-21.5,17.1-11,0-18.5-5.5-18.5-15l12.1-1.9c-.2,3.4,2.4,5.7,7,5.7,3.9,0,6.5-1.8,6.5-4.6,0-1.9-1.2-3.2-3.7-3.9l-6.9-2c-8.4-2.5-11.8-7.2-11.8-13.5,0-10,8-17.11,20.4-17.11,10.7,0,16.9,5.51,17.8,14Z"/><path class="cls-2" d="M402.24,273.25l-4.4,31.5h-14.2l4-28.4c.9-6.5-1.9-9.7-6.5-9.7-5.7,0-8.9,4-9.7,9.9l-4,28.2h-14.3l10.4-73.91h14.2L373.84,259a18.81,18.81,0,0,1,13.5-5.31C398.54,253.64,403.84,261.55,402.24,273.25Z"/><path class="cls-2" d="M425.74,284.45c-.2,5.6,3.6,9.8,10.2,9.8,5.3,0,9.4-2.8,10.8-6.9l11.7,4c-3.5,9.1-12.4,14.6-23.3,14.6-13.5,0-23.1-8.5-23.1-24.1,0-15.9,10-28.21,25.9-28.21s23.5,12.21,21.5,26.31a23.74,23.74,0,0,1-1.1,4.5Zm1.4-10.3h18.8c.1-5.3-3-8.8-8.7-8.8C431.84,265.35,427.94,268.65,427.14,274.15Z"/><path class="cls-2" d="M489.24,255.35l-6.9,49.4h-13.8l6.9-49.4Zm-13.5-16a9.36,9.36,0,0,1,9.7-9.5c4.7,0,8.3,3.3,8.3,8a9.37,9.37,0,0,1-9.7,9.51C479.34,247.35,475.74,244.14,475.74,239.34Z"/><path class="cls-2" d="M573,273l-4.4,31.8h-14.2l4.1-29.9c.8-6.1-1.8-8.5-5.8-8.5-5.1,0-7.9,3.9-8.6,8.6l-4.1,29.8h-14.4l4.2-29.9c.8-6-2.2-8.5-6.1-8.5-5.1,0-7.7,4.1-8.3,8.6l-4.1,29.8h-14.4l7-49.5h12.6l.1,4.8c2.1-3.5,6.6-6.41,12.7-6.41,6.9,0,11.9,3.31,13.4,9.11,2.8-5.9,9-9.11,15.8-9.11C569,253.64,574.64,261.15,573,273Z"/><path class="cls-2" d="M35.34,179.06l-2.86,20.47H23.83l2.6-18.59c.65-4.48-1.3-6.63-4.48-6.63-4,0-6.24,2.8-6.83,6.89l-2.6,18.33H3.75l6.76-48h8.71L16.62,170a12,12,0,0,1,9-3.7C32.93,166.32,36.38,171.45,35.34,179.06Z"/><path class="cls-2" d="M57.63,166.38c9.17,0,15.21,6.37,15.21,15.86,0,9.95-6.63,18.14-17,18.14-9.17,0-15.21-6.24-15.21-15.8C40.67,174.57,47.36,166.38,57.63,166.38Zm-1.56,26.26c4.81,0,7.93-4.61,7.93-10.2,0-5.27-2.53-8.26-6.5-8.26-4.81,0-8,4.62-8,10.27C49.5,189.65,52.11,192.64,56.07,192.64Z"/><path class="cls-2" d="M111.65,167.42l-4.56,32.44c-1.36,9.49-7.86,14.88-17.16,14.88-8.51,0-14.36-4.48-15.27-11l7.15-2.93c.84,4.16,4,6.31,8.12,6.31,4.62,0,7.81-2.67,8.45-7.48l.65-4.42c-1.88,2.28-4.87,3.71-8.84,3.71-7.8,0-12.35-5.59-12.35-14,0-10.6,6.18-18.53,15.41-18.53,4.42,0,8,1.89,9.62,4.68l.91-3.64ZM101,181.33c0-4.87-2.28-7.67-6-7.67-4.75,0-8.13,4.62-8.13,10.4,0,4.94,2.34,7.61,6,7.61C97.6,191.67,101,187.31,101,181.33Z"/><path class="cls-2" d="M146.29,183.28a22.17,22.17,0,0,1-.71,2.93H124.06c-.26,4.09,2.34,6.95,6.89,6.95,3.7,0,6.5-1.95,7.47-4.81l7.16,2.54c-2.28,6-8.07,9.42-15.09,9.42-8.77,0-14.82-5.52-14.82-15.53,0-10.34,6.44-18.46,16.77-18.46C142.52,166.32,147.52,174.12,146.29,183.28ZM124.9,179.9H138c.26-3.83-1.95-6.37-6-6.37C128.22,173.53,125.49,176,124.9,179.9Z"/><path class="cls-2" d="M169.1,177c.13-2.34-1.49-3.9-4.09-3.9s-4.1,1.43-4.1,3.32,1.37,2.34,3.19,2.79l4.09,1c4.81,1.24,7.41,4.55,7.41,9,0,7-6.11,11.05-13.78,11.05-7.15,0-12-3.57-11.89-9.75l7.41-1.17c-.13,2.41,1.62,4,4.81,4,2.79,0,4.68-1.3,4.68-3.31,0-1.37-.91-2.28-2.6-2.73l-4.62-1.3c-5.33-1.63-7.54-4.68-7.54-8.71,0-6.5,5.14-11.05,13.07-11.05,6.89,0,10.92,3.57,11.44,9.1Z"/><path class="cls-2" d="M180.67,184.52c0-10.08,6.7-18.2,17.16-18.2,7.48,0,13,4.22,14.17,10.92l-7.67,2.47a6.38,6.38,0,0,0-6.56-5.53c-4.88,0-8.26,4.16-8.26,9.95,0,5.2,2.73,8.38,7,8.38a7.12,7.12,0,0,0,7.08-5.13l7.48,2.73c-2,6.56-8.06,10.2-15.15,10.2C186.72,200.31,180.67,194.07,180.67,184.52Z"/><path class="cls-2" d="M247.1,179.06l-2.86,20.47H235.6l2.6-18.59c.65-4.48-1.3-6.63-4.49-6.63-4,0-6.24,2.8-6.82,6.89l-2.6,18.33h-8.78l6.76-48H231L228.38,170a12.07,12.07,0,0,1,9-3.7C244.7,166.32,248.14,171.45,247.1,179.06Z"/><path class="cls-2" d="M269.4,166.38c9.16,0,15.21,6.37,15.21,15.86,0,9.95-6.63,18.14-17,18.14-9.16,0-15.21-6.24-15.21-15.8C252.43,174.57,259.13,166.38,269.4,166.38Zm-1.56,26.26c4.81,0,7.93-4.61,7.93-10.2,0-5.27-2.54-8.26-6.5-8.26-4.81,0-8,4.62-8,10.27C261.27,189.65,263.87,192.64,267.84,192.64Z"/><path class="cls-2" d="M306.38,166.38c9.17,0,15.21,6.37,15.21,15.86,0,9.95-6.63,18.14-17,18.14-9.17,0-15.21-6.24-15.21-15.8C289.42,174.57,296.11,166.38,306.38,166.38Zm-1.56,26.26c4.81,0,7.93-4.61,7.93-10.2,0-5.27-2.53-8.26-6.5-8.26-4.81,0-8,4.62-8,10.27C298.26,189.65,300.86,192.64,304.82,192.64Z"/><path class="cls-2" d="M332.12,151.5h8.52l-6.76,48h-8.52Z"/><path class="cls-2" d="M169,337.08h13c12.93,0,20.6,8.19,20.6,21.13,0,15.4-10.59,26.39-26.32,26.39h-14Zm7.15,41.41c11.63,0,19.5-8.38,19.5-20,0-9.56-5.2-15.28-13.91-15.28h-7.15l-4.94,35.3Z"/><path class="cls-2" d="M216.85,352.49l-4.48,32.11h-6.11l4.48-32.11Zm-5.59-12.09a4.4,4.4,0,0,1,4.62-4.42,3.79,3.79,0,0,1,4,3.83,4.41,4.41,0,0,1-4.61,4.49A3.85,3.85,0,0,1,211.26,340.4Z"/><path class="cls-2" d="M221.4,370c0-10.21,6.83-18.66,17.1-18.66,7.15,0,12.48,4.1,13.58,10.6l-5.65,1.75C246,359.9,243,357,238.5,357c-6.37,0-10.73,5.39-10.73,12.74,0,6.24,3.25,10.08,8.52,10.08a9.12,9.12,0,0,0,9-6.44l5.52,1.95c-2,6.31-7.93,10.14-14.89,10.14C227.32,385.51,221.4,379.47,221.4,370Z"/><path class="cls-2" d="M285.89,364,283,384.6h-6.24l2.73-19.24c.78-5.33-1.62-8.19-5.72-8.19-5.27,0-8.45,3.9-9.16,9L262,384.53h-6.24l6.77-48h6.17L266,356a12.4,12.4,0,0,1,10.07-4.62C283.22,351.38,286.93,356.45,285.89,364Z"/><path class="cls-2" d="M303,374.4c-.58,4.09,1.11,5.46,4.16,5.46a29.7,29.7,0,0,0,3.84-.33l-.72,4.94a20.93,20.93,0,0,1-5.52.78c-6.05,0-8.84-4-8-10.4l2.41-17h-7.48l.78-5.39h7.41l1.24-8.65,6.24-.45-1.3,9.1h8.64l-.71,5.39h-8.65Z"/><path class="cls-2" d="M347.05,368a13.58,13.58,0,0,1-.71,2.92H323.2c-.46,6.11,2.92,9.43,8.45,9.43,4.74,0,8-2.53,9.36-6l5.2,1.88c-2.54,6.11-8.19,9.36-14.89,9.36-8.77,0-14.17-5.65-14.17-15.15,0-10.46,6.37-19,16.64-19C343.28,351.38,348.29,358.79,347.05,368ZM323.78,366h17.36c.58-5.66-2.34-9.36-7.67-9.36S324.56,360.48,323.78,366Z"/><path class="cls-2" d="M373.18,352.49l-.78,6a15.9,15.9,0,0,0-3-.26c-5.13,0-8.19,2.8-9,8.72l-2.53,17.61h-6.18l4.49-32.11h5.72l-.26,4.35a9.38,9.38,0,0,1,8.51-4.68A18.15,18.15,0,0,1,373.18,352.49Z"/><path class="cls-2" d="M423.1,366c0,11.5-6.89,19.56-16.31,19.56-4.42,0-7.87-2.08-9.3-5.46l-1,4.55H391l6.76-48h6.18l-2.67,19.31a13.09,13.09,0,0,1,10.08-4.42C418.62,351.45,423.1,357.17,423.1,366Zm-6.37.58c0-6.24-2.66-9.82-7.21-9.82-5.4,0-10.34,5.27-10.34,13.85,0,6.56,2.93,9.68,7.15,9.68C412,380.24,416.73,374.59,416.73,366.53Z"/><path class="cls-2" d="M438.18,352.49,433.7,384.6h-6.11l4.49-32.11ZM432.6,340.4a4.39,4.39,0,0,1,4.61-4.42,3.8,3.8,0,0,1,4,3.83,4.41,4.41,0,0,1-4.62,4.49A3.84,3.84,0,0,1,432.6,340.4Z"/><path class="cls-2" d="M435.06,399l.72-5.2c1.1.13,2.34.26,3.12.26,4.29,0,5.92-2.4,6.44-5.85l5.07-35.75h6.17l-5.14,36.34c-1,7.54-5.84,10.79-12.28,10.79A14.21,14.21,0,0,1,435.06,399Zm15.73-58.63a4.32,4.32,0,0,1,4.49-4.42,3.8,3.8,0,0,1,4,3.83,4.4,4.4,0,0,1-4.56,4.49A3.76,3.76,0,0,1,450.79,340.4Z"/><path class="cls-2" d="M469.84,399l.71-5.2c1.11.13,2.35.26,3.13.26,4.29,0,5.91-2.4,6.43-5.85l5.07-35.75h6.17l-5.13,36.34c-1,7.54-5.85,10.79-12.29,10.79A14.19,14.19,0,0,1,469.84,399Zm15.73-58.63a4.32,4.32,0,0,1,4.49-4.42,3.79,3.79,0,0,1,4,3.83,4.39,4.39,0,0,1-4.55,4.49A3.75,3.75,0,0,1,485.57,340.4Z"/><path class="cls-2" d="M512.29,351.38c8.77,0,14.56,6.31,14.56,15.67,0,9.75-6.31,18.46-16.64,18.46-8.78,0-14.5-6.18-14.5-15.54C495.71,360.16,502,351.38,512.29,351.38Zm-2,28.54c5.91,0,10.21-5.52,10.21-12.68,0-6.3-3.19-10.27-8.19-10.27-5.92,0-10.21,5.59-10.21,12.87C502.08,376.08,505.27,379.92,510.27,379.92Z"/><path class="cls-2" d="M562,352.55l-4.48,32.05h-5.59l.39-4.36a11.69,11.69,0,0,1-10.14,5.27c-7.22,0-10.92-5.14-9.88-12.81l2.86-20.21h6.17L538.61,372c-.71,5.13,1.82,7.93,6.11,7.93,4.81,0,7.74-3.38,8.52-8.91l2.6-18.46Z"/></svg>